# xmcd
#
# Track frame offsets:
#  150
#  993
#  21533
#  41183
#  57915
#  78848
#  95100
#  115645
#  134575
#  152058
#  168723
#  185100
#  204330
#  205083
#  205835
#  206588
#  207340
#  208093
#  208845
#  209598
#  225880
#  238638
#  256945
#  271813
#  287915
#  300820
#
# Disc length: 4237 seconds
#
# Revision: 0
# Processed by: cddbd v1.5.1PL2 Copyright (c) Steve Scherf et al.
# Submitted via: Collectorz.com_Music_Collector 6.9
#
DISCID=80108b1a
DTITLE=Various Artist - 013A
DYEAR=1993
DGENRE=Pop
TTITLE0=N/A
TTITLE1=SWV - Downtown
TTITLE2=Zhané - Hey Mr. DJ
TTITLE3=Matthew Sweet - Time Capsule
TTITLE4=Robert Plant - I Believe
TTITLE5=Lenny Kravitz - Are You Gonna Go My Way
TTITLE6=Toni Braxton - Breathe Again
TTITLE7=Kenny G - Sentimental
TTITLE8=Janet Jackson - Again
TTITLE9=Eleanor McEvoy - Only A Woman's Heart
TTITLE10=Chris Isaak - Two Hearts
TTITLE11=The Pointer Sisters - Don't Walk Away
TTITLE12=N/A
TTITLE13=N/A
TTITLE14=N/A
TTITLE15=N/A
TTITLE16=N/A
TTITLE17=N/A
TTITLE18=N/A
TTITLE19=Garth Brooks - American Honky-Tonk Bar Association
TTITLE20=Faith Hill - Wild One
TTITLE21=Aaron Tippin - The Call Of The Wild
TTITLE22=Hank Flamingo - Baby It's You
TTITLE23=Dwight Yoakam - Fast As You
TTITLE24=Pirates Of The Mississippi - Dream You
TTITLE25=Billy Ray Cyrus - Somebody New
EXTD=
EXTT0=
EXTT1=
EXTT2=
EXTT3=
EXTT4=
EXTT5=
EXTT6=
EXTT7=
EXTT8=
EXTT9=
EXTT10=
EXTT11=
EXTT12=
EXTT13=
EXTT14=
EXTT15=
EXTT16=
EXTT17=
EXTT18=
EXTT19=
EXTT20=
EXTT21=
EXTT22=
EXTT23=
EXTT24=
EXTT25=
PLAYORDER=
